<svg width="35" height="35" viewBox="0 0 35 35" fill="none" xmlns="http://www.w3.org/2000/svg">
<path d="M9.78546 13.5769C9.92037 13.4417 10.0806 13.3344 10.257 13.2612C10.4335 13.1881 10.6226 13.1504 10.8136 13.1504C11.0046 13.1504 11.1937 13.1881 11.3701 13.2612C11.5465 13.3344 11.7068 13.4417 11.8417 13.5769L17.5 19.2352L23.1584 13.5769C23.4311 13.3042 23.8009 13.151 24.1865 13.151C24.5721 13.151 24.942 13.3042 25.2146 13.5769C25.4873 13.8495 25.6405 14.2194 25.6405 14.605C25.6405 14.9906 25.4873 15.3604 25.2146 15.6331L18.5209 22.3269C18.386 22.4621 18.2257 22.5693 18.0493 22.6425C17.8729 22.7157 17.6837 22.7534 17.4927 22.7534C17.3018 22.7534 17.1126 22.7157 16.9362 22.6425C16.7598 22.5693 16.5995 22.4621 16.4646 22.3269L9.77088 15.6331C9.21671 15.079 9.21671 14.1456 9.78546 13.5769Z" fill="#FAFAFA" style="fill:#FAFAFA;fill:color(display-p3 0.9804 0.9804 0.9804);fill-opacity:1;"/>
</svg>
